<?xml version="1.0" standalone="no"?>
<!DOCTYPE svg PUBLIC "-//W3C//DTD SVG 20010904//EN"
 "http://www.w3.org/TR/2001/REC-SVG-20010904/DTD/svg10.dtd">
<svg version="1.0" xmlns="http://www.w3.org/2000/svg"
 width="67.000000pt" height="67.000000pt" viewBox="0 0 67.000000 67.000000"
 preserveAspectRatio="xMidYMid meet">
<metadata>
Created by potrace 1.16, written by Peter Selinger 2001-2019
</metadata>
<g transform="translate(0.000000,67.000000) scale(0.100000,-0.100000)"
fill="#000000" stroke="none">
<path d="M85 651 c-11 -5 -29 -19 -40 -31 -19 -21 -20 -38 -23 -268 -2 -173 0
-254 9 -274 23 -57 30 -58 312 -58 l259 0 29 29 29 29 0 256 0 256 -29 32 -29
33 -249 2 c-136 1 -257 -2 -268 -6z m445 -233 c0 -16 -44 -72 -126 -161 l-61
-67 -59 63 c-77 80 -134 151 -134 166 0 8 54 11 190 11 145 0 190 -3 190 -12z"/>
</g>
</svg>
