<?xml version="1.0" standalone="no"?>
<!DOCTYPE svg PUBLIC "-//W3C//DTD SVG 20010904//EN"
 "http://www.w3.org/TR/2001/REC-SVG-20010904/DTD/svg10.dtd">
<svg version="1.0" xmlns="http://www.w3.org/2000/svg"
 width="67.000000pt" height="67.000000pt" viewBox="0 0 67.000000 67.000000"
 preserveAspectRatio="xMidYMid meet">

<g transform="translate(0.000000,67.000000) scale(0.100000,-0.100000)"
fill="#000000" stroke="none">
<path d="M59 621 l-29 -29 0 -254 c0 -225 2 -255 18 -274 33 -41 52 -44 294
-44 336 0 321 -15 316 343 l-3 229 -33 29 -32 29 -251 0 -251 0 -29 -29z m477
-196 c3 -8 -1 -24 -9 -35 -33 -47 -173 -200 -183 -200 -21 0 -204 204 -204
228 0 18 21 20 208 21 151 1 184 -2 188 -14z"/>
</g>
</svg>
